<?xml version="1.0" encoding="UTF-8"?> <svg xmlns="http://www.w3.org/2000/svg" width="100" height="100" viewBox="0 0 100 100" fill="none"> <path d="M90 25C90 22.2386 87.7614 20 85 20H16C13.2386 20 11 22.2386 11 25V65C11 67.7614 13.2386 70 16 70H19V76.263C19 77.8604 20.7803 78.8131 22.1094 77.9271L34 70H85C87.7614 70 90 67.7614 90 65V25Z" stroke="white" stroke-width="2"></path> <path d="M51 44.5C51 44.5 45.1944 53 38.5 53C33.8056 53 30 49.1944 30 44.5C30 39.8056 33.8056 36 38.5 36C45.1944 36 51 44.5 51 44.5ZM51 44.5C51 44.5 56.8056 53 63.5 53C68.1944 53 72 49.1944 72 44.5C72 39.8056 68.1944 36 63.5 36C56.8056 36 51 44.5 51 44.5Z" stroke="white" stroke-width="2" stroke-linecap="round" stroke-linejoin="round"></path> </svg> 