<?xml version="1.0" encoding="UTF-8"?> <svg xmlns="http://www.w3.org/2000/svg" width="100" height="100" viewBox="0 0 100 100" fill="none"> <path d="M77.0303 89.9647V88.9647H76.9786L76.9272 88.97L77.0303 89.9647ZM63.7662 78.4674L64.6708 78.0411L64.6564 78.0105L64.6399 77.9809L63.7662 78.4674ZM54.8825 62.5101L55.7562 62.0237L55.7562 62.0237L54.8825 62.5101ZM66.2744 55.6893L65.4007 56.1757L65.4007 56.1757L66.2744 55.6893ZM71.9663 65.9133L72.8639 65.4724L72.8525 65.4493L72.8401 65.4269L71.9663 65.9133ZM75.0002 65.9133L74.0002 65.9133L75.0002 65.9133ZM38.0002 8V7C37.448 7 37.0002 7.44772 37.0002 8H38.0002ZM75.0002 8H76.0002C76.0002 7.44772 75.5525 7 75.0002 7V8ZM38.0002 81H37.0002C37.0002 81.5523 37.448 82 38.0002 82V81ZM61.6889 14.1864L62.6514 14.4578C62.7364 14.1564 62.6752 13.8325 62.4862 13.5828C62.2972 13.3332 62.0021 13.1864 61.6889 13.1864V14.1864ZM51.3116 14.1864V13.1864C50.9984 13.1864 50.7033 13.3332 50.5143 13.5828C50.3252 13.8325 50.2641 14.1564 50.3491 14.4578L51.3116 14.1864ZM68.8336 22.8197H69.8336C69.8336 22.5388 69.7155 22.2709 69.5081 22.0815C69.3007 21.892 69.0233 21.7985 68.7435 21.8238L68.8336 22.8197ZM61.6889 75.8136C62.2412 75.8136 62.6889 75.3658 62.6889 74.8136C62.6889 74.2613 62.2412 73.8136 61.6889 73.8136V75.8136ZM51.3116 74.8136L50.3491 75.0849C50.4706 75.5159 50.8638 75.8136 51.3116 75.8136V74.8136ZM44.1669 69.8922H43.1669C43.1669 70.173 43.285 70.4409 43.4924 70.6304C43.6997 70.8199 43.9772 70.9134 44.2569 70.8881L44.1669 69.8922ZM44.1669 22.8197L44.2569 21.8238C43.9772 21.7985 43.6997 21.892 43.4924 22.0815C43.285 22.2709 43.1669 22.5388 43.1669 22.8197H44.1669ZM68.8336 60.2861L67.9599 60.7725L67.9599 60.7725L68.8336 60.2861ZM90.0002 53.4997C90.0002 51.577 89.32 49.4508 88.3122 47.3293C87.2972 45.1927 85.9096 42.9781 84.4058 40.8569C81.3981 36.6142 77.8629 32.6583 75.7396 30.3267L74.2609 31.6733C76.3769 33.9969 79.8418 37.877 82.7742 42.0135C84.2405 44.0819 85.558 46.1927 86.5056 48.1875C87.4604 50.1974 88.0002 52.0086 88.0002 53.4997H90.0002ZM90.0002 87.9647V53.4997H88.0002V87.9647H90.0002ZM77.0303 90.9647H87.0002V88.9647H77.0303V90.9647ZM64.6399 77.9809L55.7562 62.0237L54.0088 62.9966L62.8924 78.9538L64.6399 77.9809ZM55.7562 62.0237C54.1947 59.2188 55.1351 55.6484 57.8036 54.0506L56.7762 52.3347C53.1531 54.504 51.9379 59.2767 54.0088 62.9966L55.7562 62.0237ZM57.8036 54.0506C60.4496 52.4663 63.8503 53.3909 65.4007 56.1757L67.1481 55.2029C65.0661 51.4629 60.4218 50.1519 56.7762 52.3347L57.8036 54.0506ZM74.0002 65.9133C74.0002 65.7244 74.1362 65.6389 74.1129 65.652C74.0644 65.6791 73.9186 65.7283 73.6835 65.7283C73.4585 65.7283 73.2352 65.6825 73.0676 65.6089C72.8932 65.5324 72.86 65.4646 72.8639 65.4724L71.0688 66.3543C71.3396 66.9054 71.8191 67.2451 72.2637 67.4403C72.715 67.6383 73.2168 67.7283 73.6835 67.7283C74.1401 67.7283 74.6527 67.6418 75.0896 67.3972C75.5517 67.1386 76.0002 66.6456 76.0002 65.9133L74.0002 65.9133ZM74.0002 31V65.9133H76.0002V31H74.0002ZM88.0002 87.9647C88.0002 88.517 87.5525 88.9647 87.0002 88.9647V90.9647C88.6571 90.9647 90.0002 89.6216 90.0002 87.9647H88.0002ZM38.0002 9H75.0002V7H38.0002V9ZM39.0002 81V8H37.0002V81H39.0002ZM61.6889 13.1864H51.3116V15.1864H61.6889V13.1864ZM62.4336 16.0424C62.4336 15.4916 62.5097 14.9603 62.6514 14.4578L60.7264 13.9151C60.5354 14.5925 60.4336 15.3064 60.4336 16.0424H62.4336ZM68.2169 21.8475C65.0259 21.8475 62.4336 19.2515 62.4336 16.0424H60.4336C60.4336 20.35 63.9153 23.8475 68.2169 23.8475V21.8475ZM68.7435 21.8238C68.5703 21.8394 68.3947 21.8475 68.2169 21.8475V23.8475C68.4549 23.8475 68.6906 23.8367 68.9236 23.8157L68.7435 21.8238ZM51.3116 75.8136H61.6889V73.8136H51.3116V75.8136ZM44.7836 70.8644C47.4272 70.8644 49.6616 72.6464 50.3491 75.0849L52.2741 74.5422C51.351 71.2682 48.3499 68.8644 44.7836 68.8644V70.8644ZM44.2569 70.8881C44.4302 70.8724 44.6058 70.8644 44.7836 70.8644V68.8644C44.5456 68.8644 44.3099 68.8752 44.0769 68.8962L44.2569 70.8881ZM43.1669 22.8197V69.8922H45.1669V22.8197H43.1669ZM44.7836 21.8475C44.6058 21.8475 44.4302 21.8394 44.2569 21.8238L44.0769 23.8157C44.3099 23.8367 44.5456 23.8475 44.7836 23.8475V21.8475ZM50.5669 16.0424C50.5669 19.2515 47.9746 21.8475 44.7836 21.8475V23.8475C49.0852 23.8475 52.5669 20.35 52.5669 16.0424H50.5669ZM50.3491 14.4578C50.4908 14.9603 50.5669 15.4916 50.5669 16.0424H52.5669C52.5669 15.3063 52.465 14.5925 52.274 13.9151L50.3491 14.4578ZM61.6669 45.1186C61.6669 47.9861 59.3507 50.3051 56.5002 50.3051V52.3051C60.4613 52.3051 63.6669 49.0846 63.6669 45.1186H61.6669ZM56.5002 50.3051C53.6498 50.3051 51.3336 47.9861 51.3336 45.1186H49.3336C49.3336 49.0846 52.5392 52.3051 56.5002 52.3051V50.3051ZM51.3336 45.1186C51.3336 42.2512 53.6498 39.9322 56.5002 39.9322V37.9322C52.5392 37.9322 49.3336 41.1527 49.3336 45.1186H51.3336ZM56.5002 39.9322C59.3507 39.9322 61.6669 42.2512 61.6669 45.1186H63.6669C63.6669 41.1527 60.4613 37.9322 56.5002 37.9322V39.9322ZM69.8336 60.2861V22.8197H67.8336V60.2861H69.8336ZM65.4007 56.1757L67.9599 60.7725L69.7073 59.7997L67.1481 55.2029L65.4007 56.1757ZM67.9599 60.7725L71.0926 66.3997L72.8401 65.4269L69.7073 59.7997L67.9599 60.7725ZM65.158 80H38.0002V82H65.158V80ZM63.7662 78.4674C62.8616 78.8936 62.8616 78.8937 62.8616 78.8937C62.8616 78.8938 62.8617 78.8938 62.8617 78.8939C62.8618 78.894 62.8618 78.8942 62.8619 78.8943C62.8621 78.8946 62.8622 78.895 62.8624 78.8955C62.8629 78.8963 62.8634 78.8975 62.864 78.8989C62.8654 78.9016 62.8672 78.9054 62.8695 78.9102C62.874 78.9198 62.8806 78.9334 62.889 78.9509C62.9059 78.9858 62.9304 79.036 62.9624 79.1004C63.0263 79.2292 63.1201 79.4146 63.2422 79.6465C63.4862 80.11 63.844 80.7609 64.3027 81.5181L66.0133 80.4819C65.5786 79.7642 65.2405 79.1488 65.0119 78.7147C64.8977 78.4978 64.8111 78.3266 64.7537 78.2109C64.725 78.1531 64.7036 78.1092 64.6897 78.0805C64.6827 78.0661 64.6777 78.0556 64.6745 78.0489C64.6729 78.0456 64.6718 78.0433 64.6712 78.042C64.6709 78.0414 64.6707 78.0409 64.6706 78.0408C64.6706 78.0407 64.6706 78.0407 64.6706 78.0408C64.6706 78.0408 64.6706 78.0408 64.6707 78.0409C64.6707 78.0409 64.6707 78.041 64.6707 78.041C64.6708 78.0411 64.6708 78.0411 63.7662 78.4674ZM64.3027 81.5181C65.3993 83.3283 67.1037 85.7979 69.2434 87.7564C71.3674 89.7006 74.0728 91.2768 77.1335 90.9594L76.9272 88.97C74.7029 89.2007 72.5471 88.069 70.5937 86.2811C68.656 84.5074 67.0667 82.2207 66.0133 80.4819L64.3027 81.5181ZM74.0002 8V31H76.0002V8H74.0002Z" fill="white"></path> <path fill-rule="evenodd" clip-rule="evenodd" d="M38.0002 9.63501L6.5178 26.9723C6.03402 27.2387 5.85781 27.8468 6.12423 28.3306L41.3385 92.2755C41.6049 92.7593 42.2131 92.9355 42.6968 92.6691L63.8867 80.9999H59.7406L42.608 90.4348L8.35853 28.2418L38.0002 11.9182V9.63501ZM38.0002 26.0835C35.7439 26.3315 33.4506 25.2282 32.2823 23.1067C32.0166 22.6242 31.827 22.1221 31.7087 21.6136C31.6378 21.3085 31.428 21.0544 31.142 20.9268C30.8559 20.7993 30.5267 20.8131 30.2523 20.9642L21.1622 25.9701C20.8879 26.1212 20.7002 26.392 20.655 26.7019C20.6099 27.0118 20.7126 27.325 20.9324 27.548C21.2989 27.9199 21.6219 28.3485 21.8876 28.831C23.4356 31.642 22.4171 35.1665 19.6219 36.7058C19.4662 36.7916 19.3085 36.8693 19.1492 36.9391C18.892 37.0519 18.694 37.2677 18.6038 37.5336C18.5135 37.7996 18.5393 38.0913 18.6748 38.3373L38.0002 73.4299V69.2839L20.918 38.2647C24.4331 36.1001 25.6554 31.5268 23.6395 27.8662C23.5001 27.6131 23.3486 27.3705 23.186 27.1388L30.1581 23.2993C30.267 23.5605 30.391 23.8183 30.5304 24.0714C32.0609 26.8508 35.0342 28.3338 38.0002 28.0931V26.0835ZM38.0002 44.96C37.8806 45.0175 37.762 45.0786 37.6443 45.1434C34.1746 47.0542 32.9201 51.4215 34.8333 54.8955C35.5812 56.2537 36.7034 57.2757 38.0002 57.9027V55.5695C37.4356 55.1424 36.9493 54.5919 36.5852 53.9308C35.321 51.6352 35.9725 48.8075 38.0002 47.2882V44.96Z" fill="white"></path> </svg> 