<?xml version="1.0" encoding="UTF-8"?> <svg xmlns="http://www.w3.org/2000/svg" width="62" height="41" viewBox="0 0 62 41" fill="none"> <path d="M50.2561 25.391C50.3866 26.1624 51.0581 26.7274 51.8445 26.7274H59.3893C60.2788 26.7274 61 26.01 61 25.1251V5.00602C61 4.00914 60.0946 3.25426 59.1078 3.42843L48.4779 5.30469C47.6075 5.45832 47.0242 6.28098 47.1709 7.14808L47.6031 9.70368M50.2561 25.391L47.6031 9.70368M50.2561 25.391L48.5103 27.263M44.6258 31.127L44.4685 30.9705C45.2142 32.2621 44.5359 33.4137 43.613 34.3315C41.8386 36.0964 40.0971 34.233 38.8311 32.9737M44.6258 31.127C45.8998 32.3945 47.44 31.7267 48.5103 30.6618C49.4539 29.7233 49.4539 28.2015 48.5103 27.263M44.6258 31.127L36.4362 22.9221M48.5103 27.263L32.9601 11.795C32.263 12.5666 30.4791 14.1098 28.9209 14.1098C27.1745 15.9123 25.1611 17.9151 22.745 16.7135C20.3289 15.5118 20.3289 12.9082 21.9396 11.1056C22.7688 10.1777 24.5585 8.02898 26.5395 6.29893M33.1935 34.9764C34.5867 37.39 30.9349 40.3403 28.9209 38.337C22.4035 33.6191 17.2891 27.8391 11.9243 21.9207M33.1935 34.9764C34.4595 36.2358 36.201 38.0992 37.9754 36.3342C38.8982 35.4165 39.5766 34.2652 38.8311 32.9737M33.1935 34.9764L27.7785 29.5313M38.8311 32.9737L32.6107 26.5271M47.6031 9.70368C42.5314 7.50294 37.2863 5.53675 32.0067 3.8956C30.4437 3.40972 28.4066 4.66837 26.5395 6.29893M11.9243 21.9207L11.7439 22.9876C11.6134 23.7591 10.9419 24.324 10.1555 24.324H2.61074C1.72115 24.324 1 23.6067 1 22.7218V2.60268C1 1.60579 1.9054 0.850917 2.89216 1.02509L13.5221 2.90135C14.3925 3.05497 14.9758 3.87763 14.8291 4.74474L14.5663 6.29893M11.9243 21.9207L14.5663 6.29893M14.5663 6.29893H26.5395" stroke="white" stroke-width="2"></path> </svg> 