<?xml version="1.0" encoding="UTF-8"?> <svg xmlns="http://www.w3.org/2000/svg" width="276" height="36" viewBox="0 0 276 36" fill="none"> <path d="M180.312 27V12.648L176.76 15.192L176.16 14.256L180.408 11.16H181.56V27H180.312ZM194.159 27V23.088H187.007V21.744L194.471 11.16H195.335V21.936H196.991V23.088H195.335V27H194.159ZM188.135 21.936H194.159V13.368L188.135 21.936ZM211.105 27V23.088H203.953V21.744L211.417 11.16H212.281V21.936H213.937V23.088H212.281V27H211.105ZM205.081 21.936H211.105V13.368L205.081 21.936ZM225.792 17.136C225.792 18.752 225.52 20.288 224.976 21.744C224.432 23.184 223.592 24.384 222.456 25.344C221.768 25.92 220.976 26.384 220.08 26.736C219.2 27.088 218.192 27.264 217.056 27.264L217.272 26.136C217.544 26.136 217.856 26.112 218.208 26.064C218.576 26.016 218.952 25.936 219.336 25.824C219.72 25.712 220.096 25.568 220.464 25.392C220.848 25.2 221.184 24.968 221.472 24.696C221.952 24.264 222.352 23.848 222.672 23.448C222.992 23.032 223.256 22.632 223.464 22.248C223.672 21.848 223.84 21.448 223.968 21.048C224.112 20.632 224.248 20.208 224.376 19.776C223.992 20.08 223.472 20.376 222.816 20.664C222.16 20.936 221.448 21.072 220.68 21.072C219.976 21.072 219.336 20.944 218.76 20.688C218.2 20.432 217.72 20.08 217.32 19.632C216.92 19.168 216.608 18.632 216.384 18.024C216.176 17.4 216.072 16.72 216.072 15.984C216.072 15.264 216.176 14.592 216.384 13.968C216.608 13.328 216.92 12.784 217.32 12.336C217.72 11.872 218.208 11.512 218.784 11.256C219.376 10.984 220.04 10.848 220.776 10.848C221.608 10.848 222.336 11 222.96 11.304C223.584 11.608 224.104 12.04 224.52 12.6C224.936 13.144 225.248 13.808 225.456 14.592C225.68 15.36 225.792 16.208 225.792 17.136ZM224.52 17.112C224.52 16.376 224.448 15.696 224.304 15.072C224.16 14.432 223.936 13.888 223.632 13.44C223.328 12.976 222.936 12.616 222.456 12.36C221.992 12.088 221.432 11.952 220.776 11.952C219.704 11.952 218.848 12.32 218.208 13.056C217.584 13.776 217.272 14.736 217.272 15.936C217.272 17.152 217.584 18.128 218.208 18.864C218.832 19.6 219.704 19.968 220.824 19.968C221.592 19.968 222.28 19.808 222.888 19.488C223.496 19.152 224.016 18.8 224.448 18.432C224.464 18.304 224.48 18.096 224.496 17.808C224.512 17.52 224.52 17.288 224.52 17.112ZM237.816 17.136C237.816 18.752 237.544 20.288 237 21.744C236.456 23.184 235.616 24.384 234.48 25.344C233.792 25.92 233 26.384 232.104 26.736C231.224 27.088 230.216 27.264 229.08 27.264L229.296 26.136C229.568 26.136 229.88 26.112 230.232 26.064C230.6 26.016 230.976 25.936 231.36 25.824C231.744 25.712 232.12 25.568 232.488 25.392C232.872 25.2 233.208 24.968 233.496 24.696C233.976 24.264 234.376 23.848 234.696 23.448C235.016 23.032 235.28 22.632 235.488 22.248C235.696 21.848 235.864 21.448 235.992 21.048C236.136 20.632 236.272 20.208 236.4 19.776C236.016 20.08 235.496 20.376 234.84 20.664C234.184 20.936 233.472 21.072 232.704 21.072C232 21.072 231.36 20.944 230.784 20.688C230.224 20.432 229.744 20.08 229.344 19.632C228.944 19.168 228.632 18.632 228.408 18.024C228.2 17.4 228.096 16.72 228.096 15.984C228.096 15.264 228.2 14.592 228.408 13.968C228.632 13.328 228.944 12.784 229.344 12.336C229.744 11.872 230.232 11.512 230.808 11.256C231.4 10.984 232.064 10.848 232.8 10.848C233.632 10.848 234.36 11 234.984 11.304C235.608 11.608 236.128 12.04 236.544 12.6C236.96 13.144 237.272 13.808 237.48 14.592C237.704 15.36 237.816 16.208 237.816 17.136ZM236.544 17.112C236.544 16.376 236.472 15.696 236.328 15.072C236.184 14.432 235.96 13.888 235.656 13.44C235.352 12.976 234.96 12.616 234.48 12.36C234.016 12.088 233.456 11.952 232.8 11.952C231.728 11.952 230.872 12.32 230.232 13.056C229.608 13.776 229.296 14.736 229.296 15.936C229.296 17.152 229.608 18.128 230.232 18.864C230.856 19.6 231.728 19.968 232.848 19.968C233.616 19.968 234.304 19.808 234.912 19.488C235.52 19.152 236.04 18.8 236.472 18.432C236.488 18.304 236.504 18.096 236.52 17.808C236.536 17.52 236.544 17.288 236.544 17.112ZM252.313 15.576V16.632H246.841V27H245.641V15.576H252.313ZM262.959 21.168C262.959 22.08 262.831 22.912 262.575 23.664C262.335 24.416 261.991 25.064 261.543 25.608C261.095 26.136 260.551 26.544 259.911 26.832C259.271 27.12 258.559 27.264 257.775 27.264C257.215 27.264 256.719 27.2 256.287 27.072C255.871 26.944 255.511 26.792 255.207 26.616V31.632H254.031V15.552H255.087L255.207 16.536C255.575 16.2 256.015 15.904 256.527 15.648C257.039 15.392 257.655 15.264 258.375 15.264C259.143 15.264 259.807 15.416 260.367 15.72C260.943 16.008 261.423 16.416 261.807 16.944C262.191 17.456 262.479 18.072 262.671 18.792C262.863 19.512 262.959 20.304 262.959 21.168ZM261.759 21.24C261.759 20.568 261.687 19.936 261.543 19.344C261.415 18.752 261.207 18.232 260.919 17.784C260.631 17.336 260.255 16.984 259.791 16.728C259.327 16.456 258.775 16.32 258.135 16.32C257.527 16.32 256.975 16.464 256.479 16.752C255.999 17.04 255.575 17.368 255.207 17.736V25.392C255.495 25.616 255.839 25.808 256.239 25.968C256.655 26.128 257.127 26.208 257.655 26.208C258.887 26.208 259.879 25.768 260.631 24.888C261.383 24.008 261.759 22.792 261.759 21.24ZM272.951 27V21.576H266.879V27H265.703V15.552H266.879V20.472H272.951V15.552H274.127V27H272.951Z" fill="#666666"></path> <path d="M174 21H275.807V22.2H174V21Z" fill="#666666"></path> <path d="M9.18 29V8.516L4.032 11.972L2.7 9.992L9.54 5.24H11.952V29H9.18ZM27.637 29V8.516L22.489 11.972L21.157 9.992L27.997 5.24H30.409V29H27.637ZM55.5055 29V22.952H45.1015V20.396L56.3335 5.276H58.0615V20.54H60.5455V22.952H58.0615V29H55.5055ZM47.7295 20.54H55.5055V10.136L47.7295 20.54ZM66.7266 29.324C66.2946 29.324 66.0066 29.312 65.8626 29.288L66.1866 26.912C66.3066 26.912 66.4026 26.924 66.4746 26.948C66.5706 26.948 66.6786 26.948 66.7986 26.948C68.2386 26.948 69.5586 26.648 70.7586 26.048C71.9586 25.448 72.9186 24.548 73.6386 23.348C74.3826 22.124 74.9226 20.804 75.2586 19.388C74.6586 19.796 74.0106 20.12 73.3146 20.36C72.6186 20.6 71.8746 20.72 71.0826 20.72C70.0026 20.72 69.0426 20.504 68.2026 20.072C67.3866 19.64 66.6906 19.052 66.1146 18.308C65.5386 17.564 65.0946 16.712 64.7826 15.752C64.4946 14.792 64.3506 13.772 64.3506 12.692C64.3506 11.012 64.7106 9.548 65.4306 8.3C66.1506 7.028 67.0386 6.128 68.0946 5.6C69.1746 5.048 70.2546 4.772 71.3346 4.772C73.1346 4.772 74.6106 5.312 75.7626 6.392C76.9386 7.448 77.7186 8.732 78.1026 10.244C78.5106 11.756 78.7146 13.1 78.7146 14.276C78.7146 16.724 78.4026 18.896 77.7786 20.792C77.1786 22.664 76.3386 24.236 75.2586 25.508C74.2026 26.756 72.9426 27.704 71.4786 28.352C70.0146 29 68.4306 29.324 66.7266 29.324ZM71.6226 18.236C72.4146 18.236 73.1586 18.104 73.8546 17.84C74.5506 17.576 75.1746 17.228 75.7266 16.796C75.8466 16.124 75.9066 15.284 75.9066 14.276C75.9066 12.932 75.7266 11.72 75.3666 10.64C75.0306 9.536 74.4786 8.684 73.7106 8.084C72.9666 7.484 72.1626 7.184 71.2986 7.184C70.2426 7.184 69.3666 7.532 68.6706 8.228C67.9986 8.9 67.5546 9.632 67.3386 10.424C67.1466 11.216 67.0506 11.948 67.0506 12.62C67.0506 13.388 67.1466 14.108 67.3386 14.78C67.5306 15.452 67.8186 16.052 68.2026 16.58C68.5866 17.084 69.0546 17.492 69.6066 17.804C70.1826 18.092 70.8546 18.236 71.6226 18.236ZM85.1836 29.324C84.7516 29.324 84.4636 29.312 84.3196 29.288L84.6436 26.912C84.7636 26.912 84.8596 26.924 84.9316 26.948C85.0276 26.948 85.1356 26.948 85.2556 26.948C86.6956 26.948 88.0156 26.648 89.2156 26.048C90.4156 25.448 91.3756 24.548 92.0956 23.348C92.8396 22.124 93.3796 20.804 93.7156 19.388C93.1156 19.796 92.4676 20.12 91.7716 20.36C91.0756 20.6 90.3316 20.72 89.5396 20.72C88.4596 20.72 87.4996 20.504 86.6596 20.072C85.8436 19.64 85.1476 19.052 84.5716 18.308C83.9956 17.564 83.5516 16.712 83.2396 15.752C82.9516 14.792 82.8076 13.772 82.8076 12.692C82.8076 11.012 83.1676 9.548 83.8876 8.3C84.6076 7.028 85.4956 6.128 86.5516 5.6C87.6316 5.048 88.7116 4.772 89.7916 4.772C91.5916 4.772 93.0676 5.312 94.2196 6.392C95.3956 7.448 96.1756 8.732 96.5596 10.244C96.9676 11.756 97.1716 13.1 97.1716 14.276C97.1716 16.724 96.8596 18.896 96.2356 20.792C95.6356 22.664 94.7956 24.236 93.7156 25.508C92.6596 26.756 91.3996 27.704 89.9356 28.352C88.4716 29 86.8876 29.324 85.1836 29.324ZM90.0796 18.236C90.8716 18.236 91.6156 18.104 92.3116 17.84C93.0076 17.576 93.6316 17.228 94.1836 16.796C94.3036 16.124 94.3636 15.284 94.3636 14.276C94.3636 12.932 94.1836 11.72 93.8236 10.64C93.4876 9.536 92.9356 8.684 92.1676 8.084C91.4236 7.484 90.6196 7.184 89.7556 7.184C88.6996 7.184 87.8236 7.532 87.1276 8.228C86.4556 8.9 86.0116 9.632 85.7956 10.424C85.6036 11.216 85.5076 11.948 85.5076 12.62C85.5076 13.388 85.6036 14.108 85.7956 14.78C85.9876 15.452 86.2756 16.052 86.6596 16.58C87.0436 17.084 87.5116 17.492 88.0636 17.804C88.6396 18.092 89.3116 18.236 90.0796 18.236ZM108.372 29V11.828H118.92V14.096H111V29H108.372ZM121.31 35.804V11.828H123.686L123.902 13.088C124.598 12.488 125.33 12.056 126.098 11.792C126.89 11.528 127.73 11.396 128.618 11.396C130.346 11.396 131.726 11.9 132.758 12.908C133.814 13.916 134.498 15.104 134.81 16.472C135.122 17.816 135.278 19.064 135.278 20.216C135.278 22.28 134.834 24.056 133.946 25.544C133.082 27.032 132.026 28.04 130.778 28.568C129.53 29.096 128.318 29.372 127.142 29.396C125.846 29.396 124.778 29.204 123.938 28.82V35.804H121.31ZM126.638 27.164C127.934 27.164 129.062 26.84 130.022 26.192C130.982 25.52 131.654 24.644 132.038 23.564C132.446 22.484 132.65 21.404 132.65 20.324C132.65 19.004 132.446 17.816 132.038 16.76C131.654 15.68 131.09 14.888 130.346 14.384C129.626 13.88 128.822 13.628 127.934 13.628C127.19 13.628 126.47 13.796 125.774 14.132C125.102 14.468 124.49 14.912 123.938 15.464V26.408C124.202 26.6 124.562 26.78 125.018 26.948C125.498 27.092 126.038 27.164 126.638 27.164ZM139.275 29V11.828H141.903V18.92H150.003V11.828H152.631V29H150.003V21.188H141.903V29H139.275Z" fill="black"></path> </svg> 