<?xml version="1.0" encoding="UTF-8"?> <svg xmlns="http://www.w3.org/2000/svg" width="908" height="908" viewBox="0 0 908 908" fill="none"> <path d="M334.269 497.332C333.634 499.125 333.019 501.05 332.311 502.942C326.45 518.812 317.553 532.902 306.757 545.815C304.673 548.329 302.245 550.604 299.738 552.715C294.783 556.909 289.081 559.442 282.485 559.674C277.531 559.833 272.774 558.933 268.19 557.068C264.869 555.711 261.601 554.197 258.234 552.973C247.306 549.004 236.437 549.526 225.687 553.773C221.811 555.308 217.987 557.001 214.038 558.331C209.46 559.866 204.71 560.488 199.874 559.575C195.654 558.787 191.963 556.823 188.536 554.289C184.282 551.14 180.71 547.303 177.37 543.242C161.553 523.952 150.935 502.141 145.808 477.711C143.599 467.206 142.54 456.615 143.189 445.879C143.949 433.006 146.94 420.748 153.819 409.7C162.452 395.815 174.631 386.719 190.653 382.968C200.291 380.699 209.665 381.625 218.854 385.164C223.689 387.017 228.538 388.849 233.394 390.668C237.866 392.348 242.318 392.348 246.796 390.635C251.751 388.743 256.712 386.858 261.687 385.012C266.787 383.153 271.974 381.632 277.385 381.202C285.482 380.547 293.381 381.599 301.067 384.172C311.963 387.817 320.827 394.267 327.522 403.661C327.7 403.919 327.899 404.203 328.031 404.408C311.149 416.177 301.537 431.722 302.933 452.772C304.342 473.835 315.68 488.084 334.269 497.332ZM239.572 378.595C244.554 378.728 249.343 377.769 253.954 375.936C274.984 367.588 285.978 345.341 285.647 328.326C285.621 326.957 285.528 325.588 285.469 324C283.306 324.324 281.334 324.476 279.442 324.953C264.088 328.717 252.274 337.283 244.507 351.155C239.963 359.279 237.436 367.905 238.21 377.332C238.263 378.331 238.626 378.582 239.572 378.595Z" fill="white"></path> <path d="M530.93 546H491.398L479.943 510.175H422.668L411.325 546H372.019L430.642 384.955H473.654L530.93 546ZM471.633 482.323L454.338 428.192C453.065 424.149 452.167 419.32 451.643 413.705H450.744C450.37 418.422 449.434 423.101 447.937 427.743L430.417 482.323H471.633Z" fill="white"></path> <path d="M618.002 381.361V546H582.626V421.342C580.679 423.064 578.358 424.711 575.663 426.283C573.042 427.781 570.235 429.166 567.24 430.438C564.245 431.636 561.138 432.685 557.919 433.583C554.699 434.407 551.517 435.006 548.373 435.38V405.507C557.582 402.812 566.267 399.368 574.428 395.175C582.588 390.982 589.963 386.378 596.552 381.361H618.002Z" fill="white"></path> <path d="M661.949 540.722V509.838C672.73 517.699 685.308 521.63 699.683 521.63C708.742 521.63 715.78 519.683 720.797 515.79C725.888 511.897 728.433 506.469 728.433 499.506C728.433 492.318 725.289 486.778 719 482.885C712.785 478.992 704.213 477.045 693.282 477.045H678.345V449.867H692.159C713.122 449.867 723.604 442.904 723.604 428.979C723.604 415.876 715.556 409.325 699.459 409.325C688.677 409.325 678.196 412.807 668.013 419.77V390.795C679.319 385.105 692.496 382.26 707.545 382.26C724.016 382.26 736.819 385.966 745.953 393.378C755.162 400.79 759.766 410.411 759.766 422.24C759.766 443.279 749.097 456.456 727.759 461.771V462.333C739.14 463.756 748.124 467.911 754.713 474.799C761.301 481.612 764.595 489.997 764.595 499.955C764.595 515.004 759.092 526.908 748.087 535.668C737.081 544.428 721.882 548.808 702.491 548.808C685.87 548.808 672.356 546.112 661.949 540.722Z" fill="white"></path> <rect x="16.5" y="16.5" width="875" height="875" rx="113.5" stroke="white" stroke-width="33"></rect> </svg> 