<?xml version="1.0" encoding="UTF-8"?> <svg xmlns="http://www.w3.org/2000/svg" width="284" height="70" viewBox="0 0 284 70" fill="none"> <path d="M69.9935 35C69.9935 54.3294 54.3294 70 35 70C15.6706 70 0 54.3294 0 35C0 15.6706 15.6706 0 35 0C54.3294 0 69.9935 15.6706 69.9935 35Z" fill="white"></path> <path d="M35.2761 54.5154C25.6629 54.548 15.6574 46.3426 15.6123 33.1605C15.5801 24.4475 20.2872 16.0559 26.293 11.0789C32.1574 6.23049 40.1889 3.11177 47.4679 3.08606C48.4068 3.08606 49.3906 3.16309 49.9886 3.36887C43.6226 4.68709 38.5556 10.6158 38.5749 17.3354C38.5749 17.5604 38.594 17.7983 38.6197 17.9077C49.2746 20.5055 54.1102 26.9358 54.1423 35.8289C54.168 44.7284 47.1462 54.4767 35.2759 54.5152" fill="#FF0000"></path> <path d="M92.596 49.4939L81.896 23.9594H88.8857L95.5603 40.916L102.029 23.9594H108.704L98.3189 49.4939H92.596Z" fill="white"></path> <path d="M127.326 36.5944C127.326 35.5334 127.204 34.5238 126.953 33.5657C126.709 32.6076 126.336 31.7845 125.841 31.0965C125.346 30.402 124.748 29.8554 124.04 29.4503C123.333 29.0388 122.503 28.833 121.552 28.833C120.6 28.833 119.764 29.0388 119.063 29.4503C118.356 29.8554 117.751 30.402 117.263 31.0965C116.768 31.7845 116.395 32.6076 116.15 33.5657C115.9 34.5238 115.777 35.5334 115.777 36.5944C115.777 37.6939 115.899 38.7163 116.15 39.6551C116.395 40.594 116.755 41.4171 117.231 42.1244C117.706 42.8317 118.311 43.3911 119.038 43.8027C119.758 44.2077 120.6 44.4136 121.552 44.4136C122.503 44.4136 123.333 44.2077 124.04 43.8027C124.748 43.3911 125.346 42.8317 125.841 42.1244C126.336 41.4171 126.709 40.594 126.953 39.6551C127.204 38.7163 127.326 37.6939 127.326 36.5944ZM133.789 36.6224C133.789 38.2878 133.531 39.9211 133.023 41.5286C132.509 43.1362 131.75 44.5701 130.741 45.8433C129.737 47.1165 128.464 48.139 126.927 48.9171C125.391 49.6951 123.597 50.0809 121.552 50.0809C119.5 50.0809 117.706 49.695 116.176 48.9171C114.639 48.139 113.366 47.1166 112.356 45.8434C111.353 44.5701 110.595 43.1362 110.08 41.5286C109.572 39.9211 109.315 38.2878 109.315 36.6224C109.315 34.9634 109.572 33.3429 110.08 31.7482C110.595 30.1599 111.353 28.7389 112.356 27.485C113.366 26.231 114.639 25.2279 116.176 24.4691C117.706 23.7104 119.5 23.3246 121.552 23.3246C123.597 23.3246 125.384 23.7105 126.902 24.4691C128.419 25.2279 129.692 26.231 130.715 27.485C131.744 28.7389 132.509 30.1599 133.023 31.7482C133.531 33.3429 133.789 34.9634 133.789 36.6224Z" fill="white"></path> <path d="M153.523 29.579C152.256 29.0838 151.079 28.8331 149.986 28.8331C148.867 28.8331 147.896 29.0519 147.092 29.4761C146.282 29.9003 145.613 30.4728 145.086 31.1994C144.559 31.926 144.166 32.7426 143.903 33.6493C143.639 34.5496 143.504 35.482 143.504 36.4401C143.504 37.5011 143.62 38.517 143.851 39.4944C144.076 40.4654 144.43 41.3207 144.906 42.0473C145.375 42.7739 145.973 43.359 146.694 43.8027C147.414 44.24 148.269 44.4651 149.253 44.4651C150.063 44.4651 150.886 44.2402 151.728 43.8027C152.571 43.359 153.169 42.8318 153.523 42.2337L153.523 29.579ZM154.05 49.4935L153.786 47.5387C153.188 48.2075 152.397 48.7991 151.407 49.307C150.423 49.8214 149.259 50.0787 147.922 50.0787C146.166 50.0787 144.61 49.7059 143.279 48.9663C141.935 48.2268 140.81 47.2365 139.897 46.0019C138.984 44.7673 138.283 43.3333 137.807 41.7065C137.338 40.086 137.1 38.3885 137.1 36.6202C137.1 34.9612 137.344 33.3342 137.833 31.746C138.328 30.1577 139.074 28.7367 140.077 27.4827C141.086 26.2288 142.34 25.2257 143.858 24.4669C145.369 23.7082 147.15 23.3223 149.189 23.3223C150.526 23.3223 151.973 23.5729 153.523 24.0618V14.1592H160.088V49.4935H154.05Z" fill="white"></path> <path d="M178.582 37.5208C177.874 37.5581 177.141 37.6239 176.395 37.7074C175.649 37.7975 174.942 37.9132 174.267 38.0546C172.839 38.3374 171.856 38.8199 171.303 39.5079C170.756 40.2024 170.479 40.9483 170.479 41.7649C170.479 42.6073 170.788 43.2889 171.412 43.8033C172.036 44.3113 172.91 44.5685 174.048 44.5685C174.903 44.5685 175.733 44.3949 176.53 44.0412C177.328 43.6875 178.016 43.2439 178.582 42.7166V37.5208ZM179.109 49.4747L178.852 47.5649C178.138 48.3494 177.238 48.9667 176.138 49.4104C175.039 49.8542 173.836 50.0792 172.524 50.0792C171.425 50.0792 170.364 49.8925 169.361 49.5197C168.345 49.1534 167.451 48.6195 166.673 47.9314C165.895 47.2434 165.265 46.4011 164.789 45.3915C164.306 44.3819 164.068 43.2438 164.068 41.9706C164.068 40.7039 164.313 39.5786 164.814 38.6076C165.31 37.6366 165.978 36.8199 166.833 36.1448C167.682 35.476 168.66 34.9295 169.759 34.5051C170.852 34.0809 172.01 33.7591 173.212 33.5469C174.061 33.3733 174.994 33.2445 176.003 33.1545C177.013 33.0644 177.855 32.9874 178.53 32.9165V32.5437C178.53 31.129 178.17 30.1258 177.437 29.5214C176.71 28.9234 175.707 28.6212 174.434 28.6212C173.688 28.6212 172.974 28.7112 172.299 28.8913C171.624 29.0649 171.026 29.2838 170.492 29.5472C169.959 29.8174 169.489 30.0809 169.078 30.3446C168.673 30.6083 168.345 30.8461 168.094 31.0584L165.92 26.4543C166.203 26.2037 166.634 25.9077 167.219 25.5541C167.804 25.2004 168.505 24.8531 169.341 24.5187C170.171 24.1842 171.103 23.9014 172.145 23.6699C173.187 23.4385 174.312 23.3228 175.508 23.3228C176.923 23.3228 178.215 23.5095 179.379 23.8823C180.543 24.2551 181.552 24.8339 182.401 25.6312C183.244 26.4222 183.906 27.4253 184.388 28.6471C184.864 29.8624 185.102 31.3349 185.102 33.0646V49.4747H179.109Z" fill="white"></path> <path d="M205.396 19.9854C205.184 19.8828 204.772 19.7283 204.155 19.5352C203.531 19.3424 202.714 19.2459 201.686 19.2459C200.773 19.2459 200.001 19.5226 199.384 20.069C198.766 20.6155 198.458 21.5093 198.458 22.7439V23.9593H203.968V29.2578H198.509V49.4939H191.937V29.2578H188.549V23.9593H191.937V22.5831C191.937 20.9242 192.15 19.5224 192.574 18.3714C192.998 17.2268 193.59 16.2879 194.349 15.5677C195.107 14.8411 196.001 14.3074 197.024 13.973C198.053 13.6385 199.165 13.4714 200.367 13.4714C201.956 13.4714 203.267 13.6193 204.309 13.9217C205.351 14.2241 205.962 14.4233 206.135 14.5326L205.396 19.9854Z" fill="white"></path> <path d="M223.304 36.5944C223.304 35.5334 223.176 34.5238 222.931 33.5657C222.687 32.6076 222.314 31.7845 221.819 31.0965C221.324 30.402 220.726 29.8554 220.018 29.4503C219.311 29.0388 218.482 28.833 217.53 28.833C216.578 28.833 215.742 29.0388 215.041 29.4503C214.334 29.8554 213.73 30.402 213.234 31.0965C212.746 31.7845 212.373 32.6076 212.122 33.5657C211.878 34.5238 211.756 35.5334 211.756 36.5944C211.756 37.6939 211.878 38.7163 212.122 39.6551C212.373 40.594 212.733 41.4171 213.209 42.1244C213.685 42.8317 214.289 43.3911 215.009 43.8027C215.736 44.2077 216.578 44.4136 217.53 44.4136C218.482 44.4136 219.311 44.2077 220.018 43.8027C220.726 43.3911 221.324 42.8317 221.819 42.1244C222.314 41.4171 222.687 40.594 222.931 39.6551C223.176 38.7163 223.304 37.6939 223.304 36.5944ZM229.767 36.6224C229.767 38.2878 229.51 39.9211 228.995 41.5286C228.487 43.1362 227.728 44.5701 226.719 45.8433C225.716 47.1165 224.442 48.139 222.906 48.9171C221.369 49.6951 219.575 50.0809 217.53 50.0809C215.479 50.0809 213.685 49.695 212.154 48.9171C210.617 48.139 209.344 47.1166 208.335 45.8434C207.332 44.5701 206.573 43.1362 206.058 41.5286C205.544 39.9211 205.293 38.2878 205.293 36.6224C205.293 34.9634 205.544 33.3429 206.058 31.7482C206.573 30.1599 207.332 28.7389 208.335 27.485C209.344 26.231 210.617 25.2279 212.154 24.4691C213.685 23.7104 215.479 23.3246 217.53 23.3246C219.575 23.3246 221.362 23.7105 222.88 24.4691C224.397 25.2279 225.671 26.231 226.693 27.485C227.722 28.7389 228.487 30.1599 228.995 31.7482C229.51 33.3429 229.767 34.9634 229.767 36.6224Z" fill="white"></path> <path d="M250.157 49.4938V34.9293C250.157 32.9873 249.752 31.4827 248.942 30.4217C248.125 29.3671 247 28.8334 245.547 28.8334C244.525 28.8334 243.579 29.097 242.718 29.6307C241.85 30.158 241.097 30.7432 240.461 31.3798V49.4938H233.895V23.9592H239.882L240.197 25.972C241.226 25.1296 242.377 24.4737 243.669 24.0171C244.955 23.5542 246.254 23.3291 247.56 23.3291C248.903 23.3291 250.138 23.5284 251.27 23.9335C252.402 24.3451 253.373 24.9881 254.183 25.869C254.999 26.7499 255.623 27.901 256.067 29.3092C256.504 30.7239 256.729 32.4215 256.729 34.3956V49.4938H250.157Z" fill="white"></path> <path d="M277.164 33.6564C277.094 32.7754 276.907 32.0037 276.605 31.3543C276.303 30.6984 275.93 30.1711 275.486 29.766C275.042 29.3544 274.567 29.0586 274.052 28.8593C273.531 28.6666 273.01 28.57 272.477 28.57C271.339 28.57 270.258 28.9942 269.229 29.8432C268.201 30.692 267.596 31.9587 267.416 33.6564H277.164ZM267.262 38.3697C267.403 40.5238 268.072 42.08 269.281 43.0317C270.483 43.9834 272.046 44.4656 273.956 44.4656C274.843 44.4656 275.679 44.3821 276.457 44.2276C277.235 44.0671 277.93 43.8674 278.534 43.6168C279.138 43.3723 279.653 43.1217 280.077 42.8773C280.502 42.6267 280.817 42.395 281.035 42.1829L282.784 47.5392C282.534 47.7128 282.135 47.9508 281.588 48.253C281.042 48.5554 280.36 48.8317 279.55 49.1018C278.74 49.3654 277.782 49.5905 276.688 49.7898C275.595 49.9825 274.393 50.0791 273.088 50.0791C271.422 50.0791 269.847 49.8155 268.342 49.2882C266.844 48.7545 265.526 47.9314 264.4 46.819C263.268 45.7066 262.368 44.324 261.7 42.665C261.024 41.006 260.69 39.0255 260.69 36.7299C260.69 34.5757 260.999 32.666 261.616 31.0069C262.233 29.348 263.082 27.9525 264.156 26.8208C265.236 25.6955 266.49 24.8274 267.918 24.223C269.352 23.625 270.875 23.3228 272.502 23.3228C274.129 23.3228 275.628 23.5929 277.01 24.1201C278.386 24.6474 279.576 25.4705 280.585 26.5829C281.588 27.6954 282.386 29.1357 282.964 30.904C283.55 32.6659 283.839 34.7687 283.839 37.2057V38.3696L267.262 38.3697Z" fill="white"></path> </svg> 