<?xml version="1.0" encoding="UTF-8"?> <svg xmlns="http://www.w3.org/2000/svg" width="83" height="83" viewBox="0 0 83 83" fill="none"> <path d="M41.5 1C47.0581 1 52.1718 2.11036 57.0473 4.14325L23.8132 19.7053L27.6345 3.4013C32.0657 1.79993 36.5102 1 41.5 1ZM48.5159 14.4342L63.4963 7.32486C71.5532 12.6766 77.4366 20.6438 80.2662 29.9157L48.5159 14.4342ZM67.937 30.621L81.7173 37.1353C81.7415 37.8189 81.7997 38.4594 81.8554 39.0721L81.8569 39.0888C81.931 39.9029 82 40.669 82 41.5C82 49.6371 79.6028 57.2812 75.2579 63.5648L67.937 30.621ZM70.7193 69.4646C64.6594 75.8753 56.4994 80.1561 47.2967 81.447L67.4927 55.8136L70.7193 69.4646ZM47.6837 71.6383L39.565 81.9712C29.787 81.3407 21.1791 77.4828 14.3624 71.6383H47.6837ZM22.9494 65.5177H8.74489C3.76341 58.7058 1 50.5247 1 41.5C1 40.2744 1.00058 39.0776 1.05956 37.8949L22.9494 65.5177ZM12.1711 42.4805L2.56669 30.0959C5.32745 20.1162 11.9467 11.6147 20.8664 6.38188L12.1711 42.4805Z" stroke="white" stroke-width="2"></path> </svg> 